<?xml version="1.0" encoding="UTF-8"?><svg id="Artwork" xmlns="http://www.w3.org/2000/svg" viewBox="0 0 194.85 144"><defs><style>.cls-1{fill:#fff;}</style></defs><path class="cls-1" d="M57.24,29.52h80.36c31.56,0,57.24,25.68,57.24,57.24s-25.68,57.24-57.24,57.24H3.68l25.93-25.93h108c17.26,0,31.31-14.05,31.31-31.31s-14.05-31.31-31.31-31.31H57.24c-.99,0-1.79.8-1.79,1.79s.8,1.79,1.79,1.79h80.36c15.29,0,27.73,12.44,27.73,27.73s-12.44,27.72-27.73,27.72H57.24C25.68,114.48,0,88.8,0,57.24S25.68,0,57.24,0h133.93l-25.93,25.93H57.24c-17.26,0-31.31,14.05-31.31,31.31s14.05,31.31,31.31,31.31h80.36c.99,0,1.79-.8,1.79-1.79s-.8-1.79-1.79-1.79H57.24c-15.29,0-27.73-12.44-27.73-27.72s12.44-27.73,27.73-27.73Z"/></svg>