<?xml version="1.0" encoding="UTF-8"?><svg id="Artwork" xmlns="http://www.w3.org/2000/svg" viewBox="0 0 437.13 267.94"><defs><style>.cls-1{fill:#bd202e;}.cls-2{fill:#fff;}.cls-3{fill:#052535;}</style></defs><path class="cls-1" d="M178.43,29.52h80.36c31.56,0,57.24,25.68,57.24,57.24s-25.68,57.24-57.24,57.24H124.86l25.93-25.93h108c17.26,0,31.31-14.05,31.31-31.31s-14.05-31.31-31.31-31.31h-80.36c-.99,0-1.79.8-1.79,1.79s.8,1.79,1.79,1.79h80.36c15.29,0,27.73,12.44,27.73,27.73s-12.44,27.72-27.73,27.72h-80.36c-31.56,0-57.24-25.68-57.24-57.24S146.86,0,178.43,0h133.93l-25.93,25.93h-108c-17.26,0-31.31,14.05-31.31,31.31s14.05,31.31,31.31,31.31h80.36c.99,0,1.79-.8,1.79-1.79s-.8-1.79-1.79-1.79h-80.36c-15.29,0-27.73-12.44-27.73-27.72s12.44-27.73,27.73-27.73Z"/><path class="cls-3" d="M29.91,197.17c0,1.07-.14,2.04-.41,2.89-.27.86-.63,1.61-1.08,2.26-.45.65-.97,1.21-1.57,1.67-.6.46-1.22.83-1.86,1.13-.64.29-1.29.51-1.95.65-.66.14-1.28.21-1.87.21H.25v-5.43h20.94c1.04,0,1.85-.31,2.43-.92.58-.61.87-1.43.87-2.46,0-.5-.08-.96-.23-1.38-.15-.42-.37-.78-.66-1.09-.29-.31-.63-.54-1.04-.71-.41-.17-.87-.25-1.37-.25h-12.48c-.88,0-1.82-.16-2.84-.47-1.02-.31-1.96-.82-2.83-1.51-.87-.7-1.59-1.61-2.17-2.74-.58-1.13-.87-2.5-.87-4.13s.29-3,.87-4.12,1.3-2.03,2.17-2.73c.87-.7,1.81-1.21,2.83-1.52,1.02-.31,1.96-.47,2.84-.47h18.47v5.43H8.7c-1.03,0-1.83.31-2.41.94-.58.63-.87,1.45-.87,2.48s.29,1.87.87,2.47c.58.61,1.38.91,2.41.91h12.52c.58.01,1.2.09,1.86.24.65.15,1.3.37,1.95.68.65.31,1.26.69,1.85,1.16.58.47,1.1,1.03,1.55,1.68.45.65.81,1.41,1.08,2.25s.4,1.81.4,2.88Z"/><path class="cls-3" d="M67.76,188.56c0,1.24-.15,2.35-.46,3.32-.31.97-.72,1.83-1.24,2.58-.52.74-1.12,1.38-1.8,1.91-.68.53-1.4.96-2.14,1.29-.75.33-1.5.58-2.25.73s-1.47.23-2.14.23h-12.27v-5.43h12.27c.7-.05,1.33-.2,1.89-.43.56-.23,1.05-.54,1.45-.93s.72-.86.94-1.41c.22-.55.33-1.17.33-1.87v-2.46c-.07-.68-.22-1.31-.44-1.88-.22-.57-.53-1.06-.91-1.46s-.84-.72-1.39-.95c-.54-.23-1.17-.34-1.88-.34h-12.23c-.72,0-1.27.19-1.65.56s-.56.92-.56,1.63v22.31h-5.43v-22.31c0-1.39.25-2.57.76-3.55.51-.97,1.14-1.76,1.9-2.36.76-.6,1.58-1.03,2.47-1.3s1.71-.41,2.46-.41h12.27c1.22,0,2.32.16,3.3.47.97.31,1.83.73,2.58,1.25.74.52,1.38,1.12,1.9,1.81.52.68.95,1.39,1.29,2.14.34.74.59,1.5.74,2.25.15.76.23,1.47.23,2.14v2.46Z"/><path class="cls-3" d="M107.23,193.87c0,1.82-.31,3.5-.94,5.03s-1.5,2.85-2.61,3.97-2.43,1.98-3.96,2.6c-1.52.62-3.18.93-4.98.93h-7.35c-1.79,0-3.46-.31-4.99-.93s-2.85-1.49-3.97-2.6-1.99-2.43-2.62-3.97c-.63-1.53-.95-3.21-.95-5.03v-5.72c0-1.81.32-3.48.95-5.02.63-1.54,1.51-2.86,2.62-3.97s2.43-1.97,3.97-2.6c1.53-.63,3.19-.94,4.99-.94h7.35c1.79,0,3.45.31,4.98.94,1.52.63,2.84,1.49,3.96,2.6s1.98,2.43,2.61,3.97c.63,1.54.94,3.21.94,5.02v5.72ZM101.8,188.15c0-1.07-.17-2.04-.51-2.91-.34-.87-.82-1.61-1.44-2.23s-1.36-1.1-2.23-1.44c-.87-.34-1.83-.51-2.87-.51h-7.35c-1.06,0-2.02.17-2.89.51-.87.34-1.62.82-2.24,1.44-.63.62-1.11,1.36-1.45,2.23-.34.87-.51,1.84-.51,2.91v5.72c0,1.07.17,2.04.51,2.91.34.87.82,1.62,1.45,2.23.63.62,1.37,1.1,2.24,1.44.87.34,1.83.51,2.89.51h7.31c1.06,0,2.02-.17,2.89-.51.87-.34,1.62-.82,2.24-1.44.63-.62,1.11-1.36,1.45-2.23.34-.87.51-1.84.51-2.91v-5.72Z"/><path class="cls-3" d="M145.5,186.1c0,1.24-.15,2.34-.46,3.32-.31.97-.72,1.83-1.24,2.58-.52.75-1.12,1.38-1.81,1.91-.68.53-1.4.96-2.14,1.3-.74.34-1.5.59-2.25.74-.76.15-1.47.23-2.14.23l11.33,9.79h-8.39l-11.31-9.79h-3.9v-5.43h12.27c.68-.06,1.3-.2,1.87-.43.56-.23,1.05-.54,1.46-.93.41-.39.73-.86.95-1.41.22-.55.33-1.18.33-1.89v-3.42c0-.31-.04-.54-.12-.7-.08-.16-.17-.28-.29-.35-.12-.08-.24-.12-.38-.14-.13-.01-.25-.02-.37-.02h-17.91v24.51h-5.43v-27.2c0-.38.07-.73.21-1.06.14-.33.33-.63.57-.88.24-.25.53-.44.87-.58.33-.14.7-.21,1.09-.21h20.6c1.21,0,2.23.22,3.07.66.83.44,1.51.99,2.04,1.65s.9,1.38,1.13,2.14c.23.77.34,1.48.34,2.15v3.46Z"/><path class="cls-3" d="M182.83,181.47h-11.96v24.51h-5.43v-24.51h-11.98v-5.43h29.37v5.43Z"/><path class="cls-3" d="M238.12,197.17c0,1.07-.14,2.04-.41,2.89-.27.86-.63,1.61-1.08,2.26-.45.65-.97,1.21-1.57,1.67-.6.46-1.22.83-1.86,1.13-.64.29-1.29.51-1.95.65-.66.14-1.28.21-1.87.21h-20.94v-5.43h20.94c1.04,0,1.85-.31,2.43-.92.58-.61.87-1.43.87-2.46,0-.5-.08-.96-.23-1.38-.15-.42-.37-.78-.66-1.09-.29-.31-.63-.54-1.04-.71-.41-.17-.87-.25-1.37-.25h-12.48c-.88,0-1.82-.16-2.84-.47-1.02-.31-1.96-.82-2.83-1.51-.87-.7-1.59-1.61-2.17-2.74-.58-1.13-.87-2.5-.87-4.13s.29-3,.87-4.12,1.3-2.03,2.17-2.73c.87-.7,1.81-1.21,2.83-1.52,1.02-.31,1.96-.47,2.84-.47h18.47v5.43h-18.47c-1.03,0-1.83.31-2.41.94-.58.63-.87,1.45-.87,2.48s.29,1.87.87,2.47c.58.61,1.38.91,2.41.91h12.52c.58.01,1.2.09,1.86.24.65.15,1.3.37,1.95.68.65.31,1.26.69,1.85,1.16.58.47,1.1,1.03,1.55,1.68.45.65.81,1.41,1.08,2.25s.4,1.81.4,2.88Z"/><path class="cls-3" d="M273.36,205.97h-19.58c-.5,0-1.04-.06-1.62-.18-.58-.12-1.15-.3-1.71-.55-.56-.25-1.1-.57-1.62-.97-.52-.4-.97-.88-1.37-1.44-.4-.56-.71-1.22-.95-1.96-.24-.74-.35-1.58-.35-2.52v-14.7c0-.5.06-1.04.18-1.62.12-.58.3-1.15.55-1.71.25-.56.58-1.1.98-1.62.4-.51.89-.97,1.45-1.37s1.21-.71,1.95-.95c.74-.24,1.57-.36,2.5-.36h19.58v5.43h-19.58c-.71,0-1.25.19-1.63.56s-.56.93-.56,1.67v14.65c0,.7.19,1.24.57,1.62s.92.57,1.62.57h19.58v5.43Z"/><path class="cls-3" d="M288.97,205.97h-5.43v-29.93h5.43v29.93Z"/><path class="cls-3" d="M325.53,205.97h-19.58c-.75,0-1.57-.13-2.46-.4-.89-.26-1.72-.7-2.47-1.3-.76-.61-1.39-1.39-1.9-2.36-.51-.97-.76-2.15-.76-3.56v-19.58c0-.38.07-.73.21-1.06s.33-.63.57-.88c.24-.25.53-.44.87-.58.33-.14.7-.21,1.09-.21h24.44v5.43h-21.75v16.89c0,.71.19,1.25.56,1.63.38.38.93.56,1.65.56h19.54v5.43ZM323.09,193.74h-17.14v-5.47h17.14v5.47Z"/><path class="cls-3" d="M365,203.66c0,.39-.07.75-.22,1.09-.15.33-.34.62-.58.87s-.53.43-.87.57c-.33.14-.69.21-1.06.21-.33,0-.67-.06-1.01-.19s-.64-.33-.91-.61l-19.83-20.71v21.08h-5.43v-27.62c0-.56.16-1.06.47-1.51.31-.45.71-.79,1.2-1.01.51-.21,1.04-.26,1.59-.16s1.01.36,1.4.76l19.83,20.69v-21.08h5.43v27.62Z"/><path class="cls-3" d="M401.01,205.97h-19.58c-.5,0-1.04-.06-1.62-.18-.58-.12-1.15-.3-1.71-.55-.56-.25-1.1-.57-1.62-.97-.52-.4-.97-.88-1.37-1.44-.4-.56-.71-1.22-.95-1.96-.24-.74-.35-1.58-.35-2.52v-14.7c0-.5.06-1.04.18-1.62.12-.58.3-1.15.55-1.71.25-.56.58-1.1.98-1.62.4-.51.89-.97,1.45-1.37s1.21-.71,1.95-.95c.74-.24,1.57-.36,2.5-.36h19.58v5.43h-19.58c-.71,0-1.25.19-1.63.56s-.56.93-.56,1.67v14.65c0,.7.19,1.24.57,1.62s.92.57,1.62.57h19.58v5.43Z"/><path class="cls-3" d="M437.13,205.97h-19.58c-.75,0-1.57-.13-2.46-.4-.89-.26-1.72-.7-2.47-1.3-.76-.61-1.39-1.39-1.9-2.36-.51-.97-.76-2.15-.76-3.56v-19.58c0-.38.07-.73.21-1.06s.33-.63.57-.88c.24-.25.53-.44.87-.58.33-.14.7-.21,1.09-.21h24.44v5.43h-21.75v16.89c0,.71.19,1.25.56,1.63.38.38.93.56,1.65.56h19.54v5.43ZM434.69,193.74h-17.14v-5.47h17.14v5.47Z"/><polygon class="cls-1" points="113.82 267.94 145.64 236.1 323.4 236.1 291.57 267.94 113.82 267.94"/><path class="cls-2" d="M165.22,261.35l-5.09-13.3v13.3h-3.41v-18.67h4.5l5.39,14.09v-14.09h3.41v18.67h-4.81Z"/><path class="cls-2" d="M174.99,261.35v-18.67h13.44v3.08h-9.47v4.06h8.31v3.08h-8.31v5.37h9.47v3.08h-13.44Z"/><path class="cls-2" d="M198.11,261.35v-15.59h-5.34v-3.08h14.65v3.08h-5.34v15.59h-3.97Z"/><path class="cls-2" d="M221.02,261.35l-1.89-9.1-1.91,9.1h-3.55l-2.43-18.67h3.45l1.1,14.14,1.82-9.47h2.94l1.87,9.22,1.1-13.88h3.43l-2.45,18.67h-3.48Z"/><path class="cls-2" d="M237.21,261.58c-2.22,0-3.91-.54-5.06-1.62-1.15-1.08-1.73-2.61-1.73-4.58v-6.63c0-1.99.58-3.54,1.74-4.64,1.16-1.1,2.85-1.66,5.08-1.66s3.91.55,5.05,1.66c1.14,1.1,1.71,2.65,1.71,4.64v6.63c0,1.98-.58,3.5-1.73,4.58-1.15,1.08-2.84,1.62-5.06,1.62ZM237.21,258.5c1.01,0,1.73-.26,2.17-.78.44-.52.65-1.41.65-2.67v-5.97c0-1.26-.22-2.17-.65-2.72-.44-.55-1.16-.83-2.17-.83s-1.74.28-2.17.83c-.44.55-.65,1.46-.65,2.72v5.97c0,1.26.22,2.15.65,2.67.43.52,1.16.78,2.17.78Z"/><path class="cls-2" d="M252.75,261.35h-3.97v-18.67h7.51c2.04,0,3.54.43,4.51,1.3.97.87,1.46,2.13,1.46,3.8v1.61c0,1.36-.3,2.44-.9,3.26-.6.82-1.51,1.38-2.72,1.67l4.15,7.03h-4.2l-3.97-6.72h-1.89v6.72ZM252.75,251.55h3.03c1,0,1.69-.17,2.09-.5.4-.33.59-.92.59-1.76v-1.33c0-.79-.2-1.36-.59-1.69-.4-.33-1.09-.5-2.09-.5h-3.03v5.79Z"/><path class="cls-2" d="M271.15,253.21v8.14h-3.97v-18.67h3.97v7.44h.89l5.27-7.44h4.15l-6.39,8.61,6.32,10.06h-4.13l-5.16-8.14h-.96Z"/></svg>